<svg xmlns="http://www.w3.org/2000/svg" viewBox="0 0 512 512">
  <defs>
    <linearGradient id="shell" x1="0%" y1="0%" x2="100%" y2="100%">
      <stop offset="0%" stop-color="#38bdf8"/>
      <stop offset="55%" stop-color="#818cf8"/>
      <stop offset="100%" stop-color="#c084fc"/>
    </linearGradient>
    <linearGradient id="body" x1="0%" y1="0%" x2="0%" y2="100%">
      <stop offset="0%" stop-color="#fbbf24"/>
      <stop offset="100%" stop-color="#f59e0b"/>
    </linearGradient>
  </defs>
  <rect width="512" height="512" rx="112" fill="#0f172a"/>
  <!-- shell spiral -->
  <circle cx="280" cy="230" r="120" fill="url(#shell)"/>
  <circle cx="300" cy="210" r="72" fill="#0f172a" opacity="0.35"/>
  <circle cx="310" cy="200" r="36" fill="url(#shell)"/>
  <circle cx="318" cy="194" r="14" fill="#e0f2fe"/>
  <!-- body -->
  <ellipse cx="175" cy="300" rx="78" ry="52" fill="url(#body)"/>
  <!-- eyes -->
  <circle cx="145" cy="250" r="14" fill="#fde68a"/>
  <circle cx="185" cy="242" r="14" fill="#fde68a"/>
  <circle cx="145" cy="248" r="6" fill="#0f172a"/>
  <circle cx="185" cy="240" r="6" fill="#0f172a"/>
  <!-- claws -->
  <path d="M110 310 C70 300 55 270 70 250 C95 255 115 275 120 300 Z" fill="url(#body)"/>
  <path d="M130 330 C95 360 70 355 60 330 C90 325 115 320 130 320 Z" fill="url(#body)"/>
  <!-- map pin accent -->
  <path d="M380 340 C380 310 355 290 330 290 C305 290 280 310 280 340 C280 375 330 420 330 420 C330 420 380 375 380 340 Z" fill="#f43f5e" opacity="0.95"/>
  <circle cx="330" cy="335" r="18" fill="#fff"/>
</svg>
